<?xml version="1.0" encoding="utf-8"?>
<!-- Generator: Adobe Illustrator 23.0.1, SVG Export Plug-In . SVG Version: 6.00 Build 0)  -->
<svg version="1.1" id="Layer_1" xmlns="http://www.w3.org/2000/svg" xmlns:xlink="http://www.w3.org/1999/xlink" x="0px" y="0px"
	 viewBox="0 0 300 150" style="enable-background:new 0 0 300 150;" xml:space="preserve">
<style type="text/css">
	.st0{fill:#C1272D;}
	.st1{fill:#662D91;}
	.st2{fill:#F15A24;}
	.st3{fill:#0071BC;}
	.st4{fill:#8CC63F;}
	.st5{fill:#FCEE21;}
</style>
<g>
	<rect x="52" y="121" class="st0" width="56" height="5"/>
	<rect x="131.5" y="121" class="st0" width="56" height="5"/>
	<rect x="131.5" y="71" class="st1" width="56" height="5"/>
	<rect x="212.5" y="121" class="st0" width="56" height="5"/>
	<path class="st1" d="M52,126v-5c12.82,0,19.7-11.88,26.99-24.45C86.27,83.99,93.8,71,108,71v5c-11.32,0-17.81,11.2-24.68,23.06
		C75.64,112.3,67.7,126,52,126z"/>
	<path class="st2" d="M212,76v-5c12.82,0,19.7-11.88,26.99-24.45C246.27,33.99,253.8,21,268,21v5c-11.32,0-17.81,11.2-24.68,23.06
		C235.64,62.3,227.7,76,212,76z"/>
	<path class="st3" d="M212,126v-5c12.82,0,19.7-11.88,26.99-24.45C246.27,83.99,253.8,71,268,71v5c-11.32,0-17.81,11.2-24.68,23.06
		C235.64,112.3,227.7,126,212,126z"/>
	<path class="st4" d="M132,76v-5c12.82,0,19.7-11.88,26.99-24.45C166.27,33.99,173.8,21,188,21v5c-11.32,0-17.81,11.2-24.68,23.06
		C155.64,62.3,147.7,76,132,76z"/>
	<path class="st1" d="M268,126c-14.2,0-21.73-12.99-29.01-25.55C231.7,87.88,224.82,76,212,76v-5c15.7,0,23.64,13.7,31.32,26.94
		C250.19,109.8,256.68,121,268,121V126z"/>
	<path class="st4" d="M268,126c-15.25,0-20.32-22.64-25.68-46.6C236.44,53.15,230.36,26,212,26v-5c22.36,0,29.18,30.45,35.2,57.31
		c4.92,21.95,9.56,42.69,20.8,42.69V126z"/>
	<path class="st3" d="M187.66,125.99c-22.36,0-29.18-30.45-35.2-57.31c-4.92-21.95-9.56-42.69-20.8-42.69v-5
		c15.25,0,20.32,22.63,25.68,46.6c5.88,26.25,11.96,53.4,30.32,53.4V125.99z"/>
	<path class="st3" d="M52,126v-5c18.36,0,24.44-27.15,30.32-53.4C87.68,43.63,92.75,21,108,21v5c-11.24,0-15.89,20.74-20.8,42.69
		C81.18,95.55,74.36,126,52,126z"/>
	<g>
		<circle class="st0" cx="280" cy="123.5" r="7.5"/>
		<path class="st5" d="M280,111c-6.9,0-12.5,5.6-12.5,12.5S273.1,136,280,136s12.5-5.6,12.5-12.5S286.9,111,280,111z M280,131
			c-4.14,0-7.5-3.36-7.5-7.5s3.36-7.5,7.5-7.5s7.5,3.36,7.5,7.5S284.14,131,280,131z"/>
	</g>
	<g>
		<circle class="st0" cx="200" cy="123.5" r="7.5"/>
		<path class="st5" d="M200,111c-6.9,0-12.5,5.6-12.5,12.5S193.1,136,200,136s12.5-5.6,12.5-12.5S206.9,111,200,111z M200,131
			c-4.14,0-7.5-3.36-7.5-7.5s3.36-7.5,7.5-7.5s7.5,3.36,7.5,7.5S204.14,131,200,131z"/>
	</g>
	<g>
		<circle class="st0" cx="120" cy="123.5" r="7.5"/>
		<path class="st5" d="M120,111c-6.9,0-12.5,5.6-12.5,12.5S113.1,136,120,136s12.5-5.6,12.5-12.5S126.9,111,120,111z M120,131
			c-4.14,0-7.5-3.36-7.5-7.5s3.36-7.5,7.5-7.5s7.5,3.36,7.5,7.5S124.14,131,120,131z"/>
	</g>
	<g>
		<circle class="st0" cx="40" cy="123.5" r="7.5"/>
		<path class="st5" d="M40,111c-6.9,0-12.5,5.6-12.5,12.5S33.1,136,40,136s12.5-5.6,12.5-12.5S46.9,111,40,111z M40,131
			c-4.14,0-7.5-3.36-7.5-7.5s3.36-7.5,7.5-7.5s7.5,3.36,7.5,7.5S44.14,131,40,131z"/>
	</g>
	<g>
		<circle class="st3" cx="280" cy="73.5" r="7.5"/>
		<path class="st5" d="M280,61c-6.9,0-12.5,5.6-12.5,12.5S273.1,86,280,86s12.5-5.6,12.5-12.5S286.9,61,280,61z M280,81
			c-4.14,0-7.5-3.36-7.5-7.5s3.36-7.5,7.5-7.5s7.5,3.36,7.5,7.5S284.14,81,280,81z"/>
	</g>
	<g>
		<circle class="st1" cx="200" cy="73.5" r="7.5"/>
		<path class="st5" d="M200,61c-6.9,0-12.5,5.6-12.5,12.5S193.1,86,200,86s12.5-5.6,12.5-12.5S206.9,61,200,61z M200,81
			c-4.14,0-7.5-3.36-7.5-7.5s3.36-7.5,7.5-7.5s7.5,3.36,7.5,7.5S204.14,81,200,81z"/>
	</g>
	<g>
		<circle class="st1" cx="120" cy="73.5" r="7.5"/>
		<path class="st5" d="M120,61c-6.9,0-12.5,5.6-12.5,12.5S113.1,86,120,86s12.5-5.6,12.5-12.5S126.9,61,120,61z M120,81
			c-4.14,0-7.5-3.36-7.5-7.5s3.36-7.5,7.5-7.5s7.5,3.36,7.5,7.5S124.14,81,120,81z"/>
	</g>
	<g>
		<circle class="st2" cx="280" cy="23.5" r="7.5"/>
		<path class="st5" d="M280,11c-6.9,0-12.5,5.6-12.5,12.5S273.1,36,280,36s12.5-5.6,12.5-12.5S286.9,11,280,11z M280,31
			c-4.14,0-7.5-3.36-7.5-7.5s3.36-7.5,7.5-7.5s7.5,3.36,7.5,7.5S284.14,31,280,31z"/>
	</g>
	<g>
		<circle class="st4" cx="200" cy="23.5" r="7.5"/>
		<path class="st5" d="M200,11c-6.9,0-12.5,5.6-12.5,12.5S193.1,36,200,36s12.5-5.6,12.5-12.5S206.9,11,200,11z M200,31
			c-4.14,0-7.5-3.36-7.5-7.5s3.36-7.5,7.5-7.5s7.5,3.36,7.5,7.5S204.14,31,200,31z"/>
	</g>
	<g>
		<circle class="st3" cx="120" cy="23.5" r="7.5"/>
		<path class="st5" d="M120,11c-6.9,0-12.5,5.6-12.5,12.5S113.1,36,120,36s12.5-5.6,12.5-12.5S126.9,11,120,11z M120,31
			c-4.14,0-7.5-3.36-7.5-7.5s3.36-7.5,7.5-7.5s7.5,3.36,7.5,7.5S124.14,31,120,31z"/>
	</g>
</g>
</svg>
