<?xml version="1.0" encoding="utf-8"?>
<!-- Generator: Adobe Illustrator 23.0.1, SVG Export Plug-In . SVG Version: 6.00 Build 0)  -->
<svg version="1.1" id="Layer_1" xmlns="http://www.w3.org/2000/svg" xmlns:xlink="http://www.w3.org/1999/xlink" x="0px" y="0px"
	 viewBox="0 0 320 270" style="enable-background:new 0 0 320 270;" xml:space="preserve">
<style type="text/css">
	.st0{fill:#C1272D;}
	.st1{fill:#662D91;}
	.st2{fill:#F15A24;}
	.st3{fill:#0071BC;}
	.st4{fill:#8CC63F;}
	.st5{fill:#FCEE21;}
	.st6{fill:#009245;}
	.st7{fill:#29ABE2;}
	.st8{fill:#ED1C24;}
	.st9{fill:#F7931E;}
	.st10{fill:#39B54A;}
</style>
<g>
	<rect x="52" y="121" class="st0" width="56" height="5"/>
	<rect x="131.5" y="121" class="st0" width="56" height="5"/>
	<rect x="131.5" y="71" class="st1" width="56" height="5"/>
	<rect x="212.5" y="121" class="st0" width="56" height="5"/>
	<path class="st1" d="M52,126v-5c12.82,0,19.7-11.88,26.99-24.45C86.27,83.99,93.8,71,108,71v5c-11.32,0-17.81,11.2-24.68,23.06
		C75.64,112.3,67.7,126,52,126z"/>
	<path class="st2" d="M212,76v-5c12.82,0,19.7-11.88,26.99-24.45C246.27,33.99,253.8,21,268,21v5c-11.32,0-17.81,11.2-24.68,23.06
		C235.64,62.3,227.7,76,212,76z"/>
	<path class="st3" d="M212,126v-5c12.82,0,19.7-11.88,26.99-24.45C246.27,83.99,253.8,71,268,71v5c-11.32,0-17.81,11.2-24.68,23.06
		C235.64,112.3,227.7,126,212,126z"/>
	<path class="st4" d="M132,76v-5c12.82,0,19.7-11.88,26.99-24.45C166.27,33.99,173.8,21,188,21v5c-11.32,0-17.81,11.2-24.68,23.06
		C155.64,62.3,147.7,76,132,76z"/>
	<path class="st1" d="M268,126c-14.2,0-21.73-12.99-29.01-25.55C231.7,87.88,224.82,76,212,76v-5c15.7,0,23.64,13.7,31.32,26.94
		C250.19,109.8,256.68,121,268,121V126z"/>
	<path class="st4" d="M268,126c-15.25,0-20.32-22.64-25.68-46.6C236.44,53.15,230.36,26,212,26v-5c22.36,0,29.18,30.45,35.2,57.31
		c4.92,21.95,9.56,42.69,20.8,42.69V126z"/>
	<path class="st3" d="M187.66,125.99c-22.36,0-29.18-30.45-35.2-57.31c-4.92-21.95-9.56-42.69-20.8-42.69v-5
		c15.25,0,20.32,22.63,25.68,46.6c5.88,26.25,11.96,53.4,30.32,53.4V125.99z"/>
	<path class="st3" d="M52,126v-5c18.36,0,24.44-27.15,30.32-53.4C87.68,43.63,92.75,21,108,21v5c-11.24,0-15.89,20.74-20.8,42.69
		C81.18,95.55,74.36,126,52,126z"/>
	<g>
		<circle class="st0" cx="280" cy="123.5" r="7.5"/>
		<path class="st5" d="M280,111c-6.9,0-12.5,5.6-12.5,12.5S273.1,136,280,136s12.5-5.6,12.5-12.5S286.9,111,280,111z M280,131
			c-4.14,0-7.5-3.36-7.5-7.5s3.36-7.5,7.5-7.5s7.5,3.36,7.5,7.5S284.14,131,280,131z"/>
	</g>
	<g>
		<circle class="st0" cx="200" cy="123.5" r="7.5"/>
		<path class="st5" d="M200,111c-6.9,0-12.5,5.6-12.5,12.5S193.1,136,200,136s12.5-5.6,12.5-12.5S206.9,111,200,111z M200,131
			c-4.14,0-7.5-3.36-7.5-7.5s3.36-7.5,7.5-7.5s7.5,3.36,7.5,7.5S204.14,131,200,131z"/>
	</g>
	<g>
		<circle class="st0" cx="120" cy="123.5" r="7.5"/>
		<path class="st5" d="M120,111c-6.9,0-12.5,5.6-12.5,12.5S113.1,136,120,136s12.5-5.6,12.5-12.5S126.9,111,120,111z M120,131
			c-4.14,0-7.5-3.36-7.5-7.5s3.36-7.5,7.5-7.5s7.5,3.36,7.5,7.5S124.14,131,120,131z"/>
	</g>
	<g>
		<circle class="st0" cx="40" cy="123.5" r="7.5"/>
		<path class="st5" d="M40,111c-6.9,0-12.5,5.6-12.5,12.5S33.1,136,40,136s12.5-5.6,12.5-12.5S46.9,111,40,111z M40,131
			c-4.14,0-7.5-3.36-7.5-7.5s3.36-7.5,7.5-7.5s7.5,3.36,7.5,7.5S44.14,131,40,131z"/>
	</g>
	<g>
		<circle class="st3" cx="280" cy="73.5" r="7.5"/>
		<path class="st5" d="M280,61c-6.9,0-12.5,5.6-12.5,12.5S273.1,86,280,86s12.5-5.6,12.5-12.5S286.9,61,280,61z M280,81
			c-4.14,0-7.5-3.36-7.5-7.5s3.36-7.5,7.5-7.5s7.5,3.36,7.5,7.5S284.14,81,280,81z"/>
	</g>
	<g>
		<circle class="st1" cx="200" cy="73.5" r="7.5"/>
		<path class="st5" d="M200,61c-6.9,0-12.5,5.6-12.5,12.5S193.1,86,200,86s12.5-5.6,12.5-12.5S206.9,61,200,61z M200,81
			c-4.14,0-7.5-3.36-7.5-7.5s3.36-7.5,7.5-7.5s7.5,3.36,7.5,7.5S204.14,81,200,81z"/>
	</g>
	<g>
		<circle class="st1" cx="120" cy="73.5" r="7.5"/>
		<path class="st5" d="M120,61c-6.9,0-12.5,5.6-12.5,12.5S113.1,86,120,86s12.5-5.6,12.5-12.5S126.9,61,120,61z M120,81
			c-4.14,0-7.5-3.36-7.5-7.5s3.36-7.5,7.5-7.5s7.5,3.36,7.5,7.5S124.14,81,120,81z"/>
	</g>
	<g>
		<circle class="st2" cx="280" cy="23.5" r="7.5"/>
		<path class="st5" d="M280,11c-6.9,0-12.5,5.6-12.5,12.5S273.1,36,280,36s12.5-5.6,12.5-12.5S286.9,11,280,11z M280,31
			c-4.14,0-7.5-3.36-7.5-7.5s3.36-7.5,7.5-7.5s7.5,3.36,7.5,7.5S284.14,31,280,31z"/>
	</g>
	<g>
		<circle class="st4" cx="200" cy="23.5" r="7.5"/>
		<path class="st5" d="M200,11c-6.9,0-12.5,5.6-12.5,12.5S193.1,36,200,36s12.5-5.6,12.5-12.5S206.9,11,200,11z M200,31
			c-4.14,0-7.5-3.36-7.5-7.5s3.36-7.5,7.5-7.5s7.5,3.36,7.5,7.5S204.14,31,200,31z"/>
	</g>
	<g>
		<circle class="st3" cx="120" cy="23.5" r="7.5"/>
		<path class="st5" d="M120,11c-6.9,0-12.5,5.6-12.5,12.5S113.1,36,120,36s12.5-5.6,12.5-12.5S126.9,11,120,11z M120,31
			c-4.14,0-7.5-3.36-7.5-7.5s3.36-7.5,7.5-7.5s7.5,3.36,7.5,7.5S124.14,31,120,31z"/>
	</g>
</g>
<g>
	<g>
		<path d="M60.59,165.7c-2.05-0.02-3.56-1.11-4.52-3.29c-0.45-1.03-0.9-1.65-1.35-1.86c-0.34-0.16-1.24-0.25-2.7-0.26
			c-2.87-0.03-6.21,2.18-10.01,6.61c-5.32,6.2-8,12.02-8.05,17.46c-0.02,2.48,0.79,4.62,2.44,6.41c1.65,1.79,3.63,2.7,5.96,2.72
			c2.26,0.02,4.55-0.55,6.89-1.72c0.82-0.42,2.57-1.53,5.22-3.3c1.79-1.17,3.14-1.75,4.05-1.74c1.37,0.01,2.52,0.52,3.47,1.53
			c0.88,0.94,1.32,2.02,1.3,3.22c-0.01,1.34-0.62,2.51-1.81,3.5c-6.31,5.23-12.72,7.82-19.21,7.76c-5.13-0.04-9.44-1.95-12.94-5.72
			c-3.34-3.63-4.99-7.88-4.95-12.76c0.07-7.63,3.47-15.4,10.22-23.29c5.73-6.69,11.56-10.02,17.49-9.96c1,0.01,1.91,0.05,2.72,0.13
			c0.81,0.08,1.52,0.18,2.13,0.33c1.01-0.97,2.22-1.45,3.64-1.44c2.32,0.02,3.75,1.37,4.27,4.04c0.37,1.92,0.54,4.15,0.52,6.71
			c-0.01,1.14-0.35,2.17-1.02,3.1C63.49,165.11,62.23,165.71,60.59,165.7z"/>
		<path d="M83.39,204.32c-4.22-0.04-7.83-1.52-10.83-4.44c-3.3-3.2-5.01-7.44-5.12-12.73c-0.12-5.04,1.3-9.51,4.25-13.43
			c3.5-4.62,8.34-6.9,14.52-6.84c4.56,0.04,8.16,1.9,10.82,5.56c2.39,3.3,3.56,7.38,3.52,12.23c-0.05,5.29-1.5,9.79-4.36,13.5
			C92.99,202.32,88.72,204.37,83.39,204.32z M85.69,175.9c-2.8-0.05-5.02,1.21-6.66,3.77c-1.39,2.15-2.09,4.68-2.12,7.57
			c-0.02,2.73,0.73,4.84,2.27,6.31c1.22,1.17,2.65,1.77,4.29,1.78c1.98,0.02,3.71-0.64,5.18-1.97c1.68-1.56,2.58-3.68,2.72-6.37
			C91.73,179.66,89.84,175.96,85.69,175.9z"/>
		<path d="M115.26,172.33c3.48-3.96,6.75-5.92,9.83-5.89c3.51,0.03,6.07,1.39,7.69,4.07c1.4-1.22,2.95-2.13,4.64-2.73
			c1.69-0.6,3.52-0.89,5.48-0.87c4.47,0.04,7.48,2.29,9.03,6.74c0.31,0.92,0.77,4.01,1.39,9.28c0.6,3.7,1.37,9.86,2.3,18.48
			c0.08,1.3-0.37,2.37-1.36,3.2c-0.99,0.83-2.14,1.25-3.46,1.23c-2.62-0.02-4.15-1.34-4.58-3.94c-0.39-2.35-0.78-5.67-1.18-9.96
			c-0.41-4.7-0.76-8.03-1.04-9.99c-0.58-4.08-1.35-6.13-2.3-6.14c-0.52,0-1.72,0.51-3.6,1.54c-1.88,1.03-3.25,1.92-4.13,2.66
			c-0.02,2.6,0.25,6.34,0.82,11.22c0.59,5,0.88,8.74,0.86,11.22c-0.01,1.3-0.47,2.38-1.36,3.24c-0.9,0.86-2.03,1.28-3.4,1.27
			c-1.37-0.01-2.49-0.46-3.37-1.33c-0.88-0.87-1.32-1.96-1.3-3.26c0.02-2.6-0.22-6.42-0.74-11.47c-0.51-5.05-0.76-8.88-0.74-11.47
			c0.01-1.46-0.1-2.62-0.35-3.49c-2.66,1.5-5.33,4.02-8.03,7.55c-0.12,0.16-0.31,0.4-0.59,0.71c-0.13,4.6-0.21,8.21-0.23,10.83
			c-0.01,0.64-0.04,1.5-0.09,2.58c-0.06,1.08-0.08,1.89-0.09,2.41c-0.01,1.23-0.52,2.19-1.53,2.89c-0.92,0.65-2.05,0.97-3.39,0.96
			c-1.94-0.02-3.24-0.87-3.91-2.56c-0.47-1.14-0.69-2.96-0.67-5.44l0.11-12.71c0.01-1.14-0.02-2.81-0.09-5.01
			c-0.07-2.2-0.1-3.87-0.09-5.01c0.02-2.03,0.4-3.86,1.14-5.49c0.91-2.04,2.17-3.06,3.79-3.04c1.28,0.01,2.41,0.52,3.4,1.52
			c0.99,1,1.49,2.09,1.48,3.28C115.59,168.92,115.48,169.9,115.26,172.33z"/>
		<path d="M169.63,172.81c3.48-3.96,6.75-5.92,9.83-5.89c3.51,0.03,6.07,1.39,7.69,4.07c1.4-1.22,2.95-2.13,4.64-2.73
			s3.52-0.89,5.48-0.87c4.47,0.04,7.48,2.29,9.03,6.74c0.31,0.91,0.77,4.01,1.39,9.28c0.6,3.7,1.37,9.86,2.3,18.48
			c0.08,1.3-0.37,2.37-1.36,3.2c-0.99,0.83-2.14,1.25-3.46,1.23c-2.62-0.02-4.15-1.34-4.58-3.94c-0.39-2.35-0.78-5.67-1.18-9.96
			c-0.41-4.7-0.76-8.03-1.04-9.99c-0.58-4.08-1.35-6.13-2.3-6.14c-0.52,0-1.72,0.51-3.6,1.54c-1.88,1.03-3.25,1.92-4.12,2.66
			c-0.02,2.6,0.25,6.34,0.82,11.22c0.59,5,0.88,8.74,0.86,11.22c-0.01,1.3-0.46,2.38-1.36,3.24c-0.9,0.86-2.03,1.28-3.4,1.27
			c-1.37-0.01-2.49-0.46-3.37-1.33c-0.88-0.87-1.32-1.96-1.3-3.26c0.02-2.6-0.22-6.42-0.74-11.47c-0.51-5.05-0.76-8.88-0.74-11.47
			c0.01-1.46-0.1-2.62-0.34-3.49c-2.66,1.5-5.33,4.02-8.03,7.55c-0.12,0.16-0.31,0.4-0.59,0.71c-0.13,4.6-0.21,8.21-0.23,10.83
			c-0.01,0.64-0.04,1.5-0.09,2.58c-0.06,1.08-0.08,1.89-0.09,2.41c-0.01,1.23-0.52,2.19-1.53,2.89c-0.92,0.65-2.05,0.97-3.39,0.96
			c-1.94-0.02-3.24-0.87-3.91-2.56c-0.47-1.14-0.69-2.96-0.67-5.44l0.11-12.71c0.01-1.14-0.02-2.81-0.09-5.01
			c-0.07-2.2-0.1-3.87-0.09-5.01c0.02-2.03,0.4-3.86,1.14-5.49c0.91-2.04,2.17-3.06,3.79-3.04c1.28,0.01,2.41,0.52,3.4,1.52
			c0.99,1,1.49,2.09,1.48,3.28C169.97,169.4,169.86,170.38,169.63,172.81z"/>
		<path d="M225.73,187.53c-0.01,1.3,0.01,3.38,0.06,6.26s0.08,4.96,0.07,6.25c-0.01,1.32-0.47,2.41-1.36,3.25
			c-0.9,0.85-2.03,1.26-3.4,1.25c-1.37-0.01-2.49-0.45-3.37-1.31c-0.88-0.86-1.32-1.95-1.3-3.28c0.01-1.3-0.01-3.38-0.06-6.25
			c-0.05-2.87-0.08-4.96-0.06-6.26c0.02-2.03,0.15-4.57,0.41-7.62c0.25-3.05,0.39-5.59,0.41-7.62c0.01-1.32,0.47-2.41,1.36-3.25
			c0.9-0.85,2.03-1.26,3.39-1.25c1.37,0.01,2.49,0.45,3.37,1.31c0.88,0.86,1.32,1.96,1.3,3.28c-0.02,2.03-0.15,4.57-0.41,7.62
			C225.89,182.96,225.75,185.5,225.73,187.53z M223.05,162.45c-1.46-0.01-2.72-0.51-3.78-1.5s-1.59-2.19-1.58-3.6
			c0.01-1.41,0.56-2.6,1.64-3.57c1.08-0.97,2.35-1.45,3.81-1.44c1.46,0.01,2.71,0.51,3.76,1.5c1.05,0.99,1.57,2.19,1.56,3.6
			c-0.01,1.41-0.55,2.61-1.62,3.58C225.77,161.98,224.51,162.46,223.05,162.45z"/>
		<path d="M258.88,176.33c-0.48,0-1.04-0.03-1.69-0.07c-0.65-0.04-1.21-0.06-1.69-0.07c-0.93-0.01-2.02,0.07-3.25,0.25
			c0.33,9.21,0.48,15.23,0.46,18.05c0,0.3,0,0.85,0.02,1.66c0.01,0.81,0.02,1.46,0.02,1.97c-0.05,5.24-1.72,7.85-5.03,7.82
			c-1.25-0.01-2.33-0.41-3.24-1.19c-1-0.83-1.49-1.86-1.48-3.09c0.01-0.82,0.05-2.05,0.14-3.69c0.08-1.64,0.13-2.87,0.13-3.69
			c0.02-2.76-0.13-8.66-0.46-17.71c-1.41-0.08-3.55-0.29-6.4-0.62c-2.86-0.33-4.27-1.82-4.25-4.46c0.01-1.28,0.45-2.35,1.33-3.24
			c0.87-0.88,1.99-1.32,3.36-1.3c0.84,0.01,2.78,0.16,5.81,0.46c-0.02-0.73-0.06-1.94-0.14-3.62c-0.08-1.46-0.11-2.59-0.11-3.39
			c0.01-1.28,0.49-2.33,1.43-3.17c0.94-0.83,2.07-1.25,3.4-1.23c3.37,0.03,5.03,2.88,4.98,8.55l-0.09,2.8
			c1.41-0.19,2.57-0.29,3.45-0.28c2.62,0.02,4.41,0.21,5.36,0.56c1.82,0.66,2.72,2.05,2.7,4.19c-0.01,1.3-0.47,2.38-1.36,3.23
			C261.38,175.92,260.25,176.35,258.88,176.33z"/>
		<path d="M291.77,179.12c-2.26-0.02-3.6-0.98-4.04-2.87c-0.91-0.17-1.84-0.26-2.8-0.26c-5.49-0.05-8.24,0.68-8.26,2.18
			c-0.01,0.89,1.63,2.1,4.92,3.63c4.49,2.11,7.53,3.76,9.12,4.93c3.28,2.42,4.91,5.14,4.88,8.14c-0.03,3.92-1.88,6.88-5.55,8.87
			c-2.95,1.59-6.57,2.37-10.86,2.33c-3.03-0.03-5.79-0.52-8.29-1.47c-3.41-1.31-5.1-3.2-5.08-5.68c0.02-2.28,1.39-3.41,4.1-3.38
			c1.05,0.01,2.56,0.35,4.54,1.03c1.98,0.68,3.5,1.02,4.57,1.03c4.62,0.04,6.96-0.87,7-2.74c0.01-1.16-1.58-2.46-4.79-3.91
			c-4.67-2.11-7.67-3.63-8.98-4.56c-3.19-2.28-4.78-5.04-4.75-8.28c0.04-4.58,2.49-7.64,7.36-9.2c2.86-0.91,7.19-1.34,13-1.29
			c2.28,0.02,3.96,0.33,5.05,0.93c1.5,0.81,2.24,2.29,2.22,4.43C295.11,177.1,293.98,179.14,291.77,179.12z"/>
	</g>
	<g>
		<path d="M69.92,248.59c-0.45,0-0.84-0.13-1.18-0.39c-0.39-0.3-0.58-0.66-0.58-1.09c-0.44-1.19-0.71-2.15-0.82-2.89
			c-0.11-0.74-0.48-2.85-1.1-6.32c-0.47-2.63-0.79-4.74-0.94-6.34c-0.9,3.21-1.85,5.94-2.87,8.16c-1.18,2.58-1.94,4.6-2.29,6.06
			c0.12,0.23,0.17,0.45,0.17,0.66c0,0.44-0.2,0.8-0.6,1.08c-0.35,0.26-0.76,0.39-1.2,0.38c-1.32-0.01-1.97-0.61-1.96-1.79
			l-0.44-1.86l-1.53-7.19c-0.61-2.43-1.67-5.91-3.16-10.44c-0.07-0.22-0.1-0.41-0.1-0.59c0.01-0.91,0.52-1.36,1.55-1.35
			c0.63,0.01,1.12,0.36,1.46,1.05c0.17,0.35,0.52,1.37,1.04,3.04c0.56,1.77,1.12,3.91,1.67,6.4l1.36,6.49
			c1.07-2.41,2.13-5.35,3.2-8.82c0.65-2.11,1.15-3.58,1.49-4.4c0.9-2.15,1.76-3.22,2.59-3.21c0.68,0.01,1.16,0.36,1.44,1.05
			c0.34,0.84,0.68,2.85,1.02,6.02c0.18,1.6,0.5,3.53,0.95,5.78l1.21,5.77c1.34-3.13,3.01-7.37,5.02-12.71
			c0.11-0.29,0.36-1.21,0.76-2.76c0.29-1.14,0.65-2.03,1.06-2.66c0.36-0.53,0.82-0.8,1.38-0.79c0.99,0.01,1.48,0.5,1.47,1.48
			c0,0.17-0.16,0.65-0.48,1.46l-0.6,1.58l-0.83,2.6l-4.44,10.54c-0.41,1.16-1.11,2.84-2.11,5.05
			C71.15,248.27,70.62,248.6,69.92,248.59z"/>
		<path d="M94.56,248.31c-0.69-0.01-1.14-0.38-1.35-1.12c-0.22-0.8-0.41-1.94-0.59-3.42c-0.16-1.42-0.24-2.58-0.23-3.49
			c0-0.25,0.02-0.64,0.05-1.16c0.03-0.52,0.04-0.9,0.05-1.16c0.02-1.84-0.43-2.76-1.35-2.77c-1.24-0.01-2.35,0.54-3.34,1.66
			c-0.5,0.57-1.2,1.67-2.08,3.28c-0.03,3.72-0.21,5.92-0.53,6.6c-0.28,0.6-0.71,0.9-1.28,0.9c-0.4,0-0.75-0.14-1.05-0.42
			c-0.3-0.28-0.45-0.61-0.45-1c0-0.14,0.05-0.35,0.14-0.64c0.08-0.24,0.14-0.96,0.18-2.14l0.06-2.17l0.14-10.77
			c0.08-1.21,0.12-2.03,0.12-2.45c0-0.5-0.04-0.97-0.13-1.42c-0.09-0.44-0.13-0.91-0.13-1.39c0-0.41,0.15-0.75,0.43-1.01
			c0.29-0.26,0.63-0.4,1.04-0.39c0.8,0.01,1.27,0.44,1.39,1.3c0.15,0.95,0.22,1.8,0.21,2.57c-0.01,1.03-0.05,2.09-0.13,3.21
			c-0.07,1.06-0.1,2.13-0.1,3.21l0,1.29c0.81-1.07,1.67-1.86,2.59-2.39c0.92-0.52,1.89-0.78,2.91-0.77
			c1.62,0.01,2.73,0.55,3.33,1.61c0.42,0.75,0.66,2,0.7,3.76l0.09,2.8l0.27,3.05c0.13,1.14,0.28,2.15,0.47,3.02
			c0.04,0.17,0.06,0.31,0.05,0.43c0,0.4-0.15,0.73-0.45,1C95.32,248.18,94.97,248.31,94.56,248.31z"/>
		<path d="M106.47,248.18c-2.21-0.02-3.99-0.59-5.35-1.7c-1.48-1.23-2.22-2.95-2.2-5.15c0.02-2.54,0.66-4.66,1.9-6.37
			c1.35-1.86,3.15-2.79,5.39-2.77c1.62,0.01,2.94,0.3,3.96,0.86c1.25,0.69,1.87,1.73,1.86,3.12c-0.01,0.98-0.57,1.86-1.68,2.65
			c-0.49,0.35-1.53,0.88-3.12,1.61l-5.62,2.6c0.54,0.82,1.22,1.43,2.03,1.85c0.81,0.42,1.76,0.63,2.84,0.64
			c0.67,0.01,1.47-0.11,2.38-0.36c1.15-0.31,1.9-0.73,2.24-1.25c0.34-0.52,0.7-0.78,1.08-0.77c0.34,0,0.65,0.14,0.91,0.4
			c0.27,0.26,0.4,0.56,0.39,0.91c-0.01,1.08-0.89,2.01-2.65,2.77C109.35,247.87,107.89,248.19,106.47,248.18z M106.19,234.83
			c-1.19-0.01-2.19,0.44-2.99,1.36c-0.8,0.92-1.4,2.3-1.81,4.15l4.52-2.1c1.78-0.84,3.04-1.58,3.8-2.21
			C108.88,235.25,107.71,234.85,106.19,234.83z"/>
		<path d="M127.56,236.87c-0.08,1.22-0.57,1.83-1.48,1.82c-0.84-0.01-1.26-0.49-1.25-1.46c0-0.19-0.01-0.53-0.04-1.03l-0.03-1.23
			c-1.54,0.17-2.78,0.6-3.72,1.27c-0.88,0.63-1.61,1.58-2.19,2.85l-0.04,8.03c-0.01,0.99-0.5,1.48-1.46,1.47
			c-0.86-0.01-1.28-0.5-1.28-1.49l0.09-10.28c0-0.32,0.02-0.8,0.05-1.45c0.03-0.64,0.05-1.13,0.05-1.45
			c0.01-0.99,0.44-1.48,1.3-1.47c0.96,0.01,1.43,0.82,1.43,2.44c1.89-1.79,3.98-2.67,6.26-2.66c0.79,0.01,1.38,0.31,1.76,0.91
			c0.39,0.6,0.57,1.5,0.56,2.7C127.58,236.35,127.58,236.69,127.56,236.87z"/>
		<path d="M137.32,248.45c-2.21-0.02-3.99-0.59-5.35-1.7c-1.48-1.23-2.22-2.95-2.2-5.15c0.02-2.54,0.66-4.66,1.9-6.37
			c1.35-1.86,3.15-2.78,5.39-2.76c1.62,0.01,2.94,0.3,3.96,0.86c1.25,0.68,1.87,1.73,1.86,3.12c-0.01,0.98-0.57,1.86-1.68,2.65
			c-0.49,0.35-1.53,0.88-3.12,1.61l-5.62,2.6c0.54,0.82,1.22,1.43,2.03,1.85c0.81,0.42,1.76,0.63,2.84,0.64
			c0.67,0.01,1.47-0.11,2.38-0.36c1.15-0.31,1.9-0.73,2.24-1.25c0.34-0.52,0.7-0.78,1.08-0.77c0.34,0,0.65,0.13,0.91,0.4
			c0.27,0.26,0.4,0.56,0.39,0.9c-0.01,1.08-0.89,2.01-2.65,2.78C140.19,248.14,138.74,248.46,137.32,248.45z M137.04,235.1
			c-1.19-0.01-2.19,0.44-2.99,1.36c-0.8,0.92-1.4,2.3-1.81,4.15l4.52-2.1c1.78-0.84,3.04-1.58,3.8-2.21
			C139.73,235.52,138.56,235.12,137.04,235.1z"/>
		<path d="M165.79,235.55c-0.21,0-0.45-0.01-0.72-0.04c-0.28-0.02-0.52-0.03-0.73-0.04c-0.22,0-0.89,0.07-1.99,0.2l0.2,8.66
			l0.01,0.64l0.01,0.75c0.02,2.14-0.5,3.2-1.57,3.19c-0.39,0-0.73-0.13-1.01-0.39s-0.43-0.58-0.42-0.96c0-0.37,0.02-0.93,0.06-1.67
			c0.04-0.74,0.06-1.3,0.06-1.67l-0.22-8.56c-0.71-0.04-1.8-0.13-3.25-0.28c-0.87-0.12-1.3-0.61-1.29-1.46
			c0-0.43,0.14-0.79,0.4-1.07c0.27-0.28,0.6-0.42,1.01-0.42l3.07,0.28c0-0.5-0.01-1.17-0.05-2c-0.04-0.83-0.05-1.44-0.05-1.81
			c0-0.41,0.15-0.75,0.43-1.01c0.29-0.27,0.63-0.4,1.04-0.39c0.88,0.01,1.39,0.73,1.52,2.17c0.03,0.36,0.04,0.8,0.03,1.3l-0.04,0.85
			l-0.02,0.91c1.21-0.15,1.91-0.22,2.08-0.22c1.02,0.01,1.68,0.06,1.99,0.16c0.59,0.2,0.89,0.66,0.88,1.38
			c0,0.43-0.14,0.78-0.41,1.06C166.56,235.42,166.21,235.55,165.79,235.55z"/>
		<path d="M182.27,249.08c-0.69-0.01-1.14-0.38-1.35-1.12c-0.22-0.8-0.41-1.94-0.58-3.42c-0.16-1.42-0.24-2.58-0.23-3.49
			c0-0.25,0.02-0.64,0.05-1.16c0.03-0.52,0.04-0.9,0.05-1.16c0.02-1.84-0.43-2.76-1.35-2.77c-1.24-0.01-2.35,0.54-3.34,1.66
			c-0.5,0.57-1.2,1.66-2.08,3.28c-0.03,3.72-0.21,5.92-0.53,6.6c-0.28,0.6-0.71,0.9-1.28,0.9c-0.4,0-0.75-0.14-1.05-0.42
			c-0.3-0.28-0.45-0.61-0.45-1c0-0.14,0.05-0.35,0.14-0.64c0.08-0.24,0.14-0.96,0.18-2.14l0.06-2.17l0.14-10.77
			c0.08-1.21,0.12-2.03,0.12-2.45c0-0.5-0.04-0.97-0.13-1.42c-0.09-0.44-0.13-0.91-0.13-1.38c0-0.41,0.15-0.75,0.43-1.01
			c0.29-0.26,0.63-0.4,1.04-0.39c0.8,0.01,1.27,0.44,1.39,1.3c0.15,0.95,0.22,1.8,0.21,2.57c-0.01,1.03-0.05,2.09-0.13,3.21
			c-0.07,1.06-0.1,2.13-0.1,3.21l0,1.29c0.81-1.07,1.67-1.86,2.59-2.39c0.92-0.52,1.89-0.78,2.92-0.77
			c1.62,0.01,2.73,0.55,3.33,1.61c0.42,0.75,0.66,2,0.7,3.76l0.09,2.8l0.27,3.05c0.13,1.14,0.28,2.15,0.47,3.02
			c0.04,0.17,0.06,0.31,0.05,0.43c0,0.4-0.15,0.73-0.45,1C183.04,248.95,182.68,249.09,182.27,249.08z"/>
		<path d="M194.18,248.95c-2.21-0.02-3.99-0.59-5.35-1.7c-1.48-1.23-2.21-2.95-2.2-5.15c0.02-2.54,0.66-4.66,1.9-6.37
			c1.35-1.86,3.15-2.79,5.39-2.77c1.62,0.01,2.94,0.3,3.96,0.86c1.25,0.68,1.87,1.73,1.86,3.12c-0.01,0.98-0.57,1.86-1.68,2.65
			c-0.49,0.35-1.53,0.88-3.12,1.61l-5.62,2.6c0.54,0.82,1.22,1.43,2.03,1.85s1.76,0.63,2.84,0.64c0.67,0.01,1.47-0.11,2.38-0.36
			c1.16-0.31,1.9-0.73,2.24-1.25c0.34-0.52,0.7-0.78,1.08-0.77c0.34,0,0.65,0.14,0.91,0.4c0.27,0.26,0.4,0.56,0.39,0.91
			c-0.01,1.08-0.89,2.01-2.65,2.77C197.06,248.65,195.6,248.96,194.18,248.95z M193.91,235.61c-1.19-0.01-2.19,0.44-2.99,1.36
			c-0.8,0.92-1.4,2.3-1.81,4.15l4.51-2.1c1.78-0.84,3.04-1.58,3.8-2.21C196.59,236.02,195.42,235.62,193.91,235.61z"/>
		<path d="M216.67,235.41l-5.17,10.91c-1.27,2.66-2.25,4.88-2.93,6.67l-0.99,2.83c-0.26,0.7-0.7,1.05-1.33,1.04
			c-0.41,0-0.76-0.14-1.06-0.41c-0.3-0.27-0.44-0.61-0.44-1.01c0.01-0.98,1.09-3.79,3.24-8.45l-5.15-10.14l-0.65-1.08
			c-0.26-0.45-0.39-0.83-0.39-1.13c0-0.4,0.16-0.75,0.47-1.05c0.31-0.3,0.66-0.45,1.04-0.45c0.45,0,0.79,0.18,1.04,0.52
			c1.64,2.32,3.39,5.62,5.26,9.89l2.21-5.03c0.8-1.74,1.56-3.24,2.29-4.49c0.32-0.54,0.73-0.81,1.24-0.81c0.4,0,0.75,0.15,1.06,0.43
			s0.46,0.62,0.45,1.01C216.87,234.89,216.8,235.14,216.67,235.41z"/>
		<path d="M239.8,249.65c-0.19,0-0.52-0.22-1.01-0.65c-0.44-0.4-0.76-0.76-0.97-1.08c-0.94,0.5-1.77,0.88-2.49,1.13
			c-0.72,0.25-1.31,0.38-1.79,0.37c-2.29-0.02-3.94-0.68-4.98-1.98c-0.98-1.22-1.45-3.08-1.43-5.58c0.02-2.36,0.85-4.38,2.49-6.04
			c1.64-1.67,3.59-2.49,5.84-2.47c0.85,0.01,1.8,0.24,2.85,0.68c1.32,0.56,1.98,1.22,1.97,2c0,0.26-0.1,0.5-0.3,0.7
			c-0.1,0.37-0.18,0.98-0.24,1.83c-0.06,0.85-0.1,1.94-0.12,3.27c-0.02,1.21,0.05,2.17,0.22,2.87c0.09,0.43,0.39,1.29,0.9,2.59
			c0.07,0.18,0.18,0.44,0.33,0.78l0.09,0.25c0,0.39-0.14,0.71-0.42,0.96S240.16,249.65,239.8,249.65z M236.84,239.44
			c0-0.42,0.04-0.88,0.09-1.37c0.06-0.49,0.14-1.02,0.26-1.57c-0.36-0.19-0.67-0.33-0.93-0.42c-0.26-0.09-0.46-0.14-0.62-0.14
			c-1.51-0.01-2.83,0.59-3.93,1.82c-1.11,1.23-1.67,2.65-1.69,4.26c-0.01,1.6,0.26,2.8,0.82,3.61s1.41,1.21,2.54,1.22
			c0.94,0.01,1.74-0.16,2.39-0.49c0.35-0.18,0.85-0.55,1.49-1.1C236.97,242.67,236.83,240.73,236.84,239.44z"/>
		<path d="M253.62,236.32c-0.21,0-0.45-0.01-0.72-0.04c-0.28-0.02-0.52-0.03-0.72-0.04c-0.22,0-0.89,0.07-1.99,0.2l0.2,8.66
			l0.01,0.64l0.01,0.75c0.02,2.14-0.5,3.2-1.57,3.19c-0.39,0-0.73-0.13-1.01-0.39c-0.29-0.26-0.43-0.58-0.42-0.96
			c0-0.37,0.02-0.93,0.06-1.67c0.04-0.74,0.06-1.3,0.06-1.67l-0.22-8.56c-0.71-0.04-1.8-0.13-3.25-0.28
			c-0.87-0.12-1.3-0.61-1.29-1.46c0-0.43,0.14-0.79,0.41-1.07c0.27-0.28,0.6-0.42,1.01-0.42l3.07,0.28c0-0.5-0.01-1.16-0.05-2
			c-0.04-0.83-0.05-1.44-0.05-1.81c0-0.41,0.15-0.75,0.43-1.01c0.29-0.27,0.63-0.4,1.04-0.39c0.88,0.01,1.39,0.73,1.52,2.17
			c0.03,0.36,0.04,0.8,0.03,1.3l-0.04,0.85l-0.02,0.91c1.21-0.15,1.91-0.22,2.08-0.22c1.02,0.01,1.68,0.06,1.99,0.16
			c0.59,0.2,0.89,0.66,0.88,1.38c0,0.43-0.14,0.78-0.41,1.06C254.39,236.19,254.04,236.33,253.62,236.32z"/>
		<path d="M261.29,244.36c-0.4,0-0.75-0.16-1.05-0.47c-0.3-0.31-0.45-0.66-0.44-1.05c0.01-0.67,0.64-1.5,1.9-2.47l3.52-2.61
			c1.27-1.07,1.91-2.06,1.92-2.96c0.01-1.13-0.51-2.18-1.57-3.15c-1.02-0.94-2.1-1.41-3.25-1.42c-0.62-0.01-1.4,0.3-2.35,0.92
			c-0.95,0.62-1.54,0.93-1.77,0.93c-0.4,0-0.74-0.17-1.03-0.49c-0.29-0.33-0.43-0.69-0.42-1.09c0.01-0.77,0.76-1.53,2.26-2.28
			c1.34-0.67,2.46-1,3.33-1c1.96,0.02,3.74,0.8,5.33,2.35c1.59,1.55,2.37,3.3,2.36,5.25c-0.01,1.43-0.48,2.69-1.41,3.78
			c-0.55,0.66-1.58,1.51-3.07,2.55c-1.5,1.07-2.55,1.94-3.14,2.61C262.05,244.17,261.68,244.36,261.29,244.36z M260.43,249.92
			c-0.43,0-0.82-0.15-1.16-0.44c-0.34-0.29-0.51-0.64-0.51-1.05c0.01-0.61,0.17-1.15,0.5-1.64c0.37-0.54,0.83-0.81,1.4-0.81
			c0.94,0.01,1.4,0.59,1.39,1.74c0,0.54-0.14,1.02-0.39,1.45C261.34,249.67,260.93,249.92,260.43,249.92z"/>
	</g>
</g>
</svg>
